solid OpenSCAD_Model
  facet normal 1 0 0
    outer loop
      vertex 11 24 4
      vertex 11 25 14
      vertex 11 24 13
    endloop
  endfacet
  facet normal 1 0 0
    outer loop
      vertex 11 25 14
      vertex 11 -24 13
      vertex 11 24 13
    endloop
  endfacet
  facet normal 1 0 0
    outer loop
      vertex 11 -24 13
      vertex 11 -25 14
      vertex 11 -24 4
    endloop
  endfacet
  facet normal 1 -0 0
    outer loop
      vertex 11 -25 14
      vertex 11 -24 13
      vertex 11 25 14
    endloop
  endfacet
  facet normal 1 0 0
    outer loop
      vertex 11 25 14
      vertex 11 24 4
      vertex 11 25 0
    endloop
  endfacet
  facet normal 1 -0 0
    outer loop
      vertex 11 -24 4
      vertex 11 25 0
      vertex 11 24 4
    endloop
  endfacet
  facet normal 1 0 0
    outer loop
      vertex 11 -24 4
      vertex 11 -25 0
      vertex 11 25 0
    endloop
  endfacet
  facet normal 1 0 0
    outer loop
      vertex 11 -25 0
      vertex 11 -24 4
      vertex 11 -25 14
    endloop
  endfacet
  facet normal -0 0 1
    outer loop
      vertex 5 25 14
      vertex 11 -25 14
      vertex 11 25 14
    endloop
  endfacet
  facet normal 0 0 1
    outer loop
      vertex 11 -25 14
      vertex 5 25 14
      vertex 5 -25 14
    endloop
  endfacet
  facet normal 0 0 -1
    outer loop
      vertex 5 -25 0
      vertex 11 25 0
      vertex 11 -25 0
    endloop
  endfacet
  facet normal -0 0 -1
    outer loop
      vertex 11 25 0
      vertex 5 -25 0
      vertex 5 25 0
    endloop
  endfacet
  facet normal -1 0 0
    outer loop
      vertex 5 25 0
      vertex 5 24 4
      vertex 5 25 14
    endloop
  endfacet
  facet normal -1 0 0
    outer loop
      vertex 5 25 0
      vertex 5 -24 4
      vertex 5 24 4
    endloop
  endfacet
  facet normal -1 0 0
    outer loop
      vertex 5 -25 14
      vertex 5 -24 4
      vertex 5 -25 0
    endloop
  endfacet
  facet normal -1 0 0
    outer loop
      vertex 5 -25 0
      vertex 5 -24 4
      vertex 5 25 0
    endloop
  endfacet
  facet normal -1 0 0
    outer loop
      vertex 5 24 13
      vertex 5 25 14
      vertex 5 24 4
    endloop
  endfacet
  facet normal -1 0 0
    outer loop
      vertex 5 -24 13
      vertex 5 25 14
      vertex 5 24 13
    endloop
  endfacet
  facet normal -1 0 0
    outer loop
      vertex 5 -24 13
      vertex 5 -25 14
      vertex 5 25 14
    endloop
  endfacet
  facet normal -1 0 0
    outer loop
      vertex 5 -24 4
      vertex 5 -25 14
      vertex 5 -24 13
    endloop
  endfacet
  facet normal 0 1 -0
    outer loop
      vertex 11 25 0
      vertex 5 25 14
      vertex 11 25 14
    endloop
  endfacet
  facet normal 0 1 0
    outer loop
      vertex 5 25 14
      vertex 11 25 0
      vertex 5 25 0
    endloop
  endfacet
  facet normal 0 -1 0
    outer loop
      vertex 5 -25 0
      vertex 11 -25 14
      vertex 5 -25 14
    endloop
  endfacet
  facet normal 0 -1 -0
    outer loop
      vertex 11 -25 14
      vertex 5 -25 0
      vertex 11 -25 0
    endloop
  endfacet
  facet normal 0 0 -1
    outer loop
      vertex 5 -24 13
      vertex 11 24 13
      vertex 11 -24 13
    endloop
  endfacet
  facet normal -0 0 -1
    outer loop
      vertex 11 24 13
      vertex 5 -24 13
      vertex 5 24 13
    endloop
  endfacet
  facet normal -0 0 1
    outer loop
      vertex 5 24 4
      vertex 11 -24 4
      vertex 11 24 4
    endloop
  endfacet
  facet normal 0 0 1
    outer loop
      vertex 11 -24 4
      vertex 5 24 4
      vertex 5 -24 4
    endloop
  endfacet
  facet normal 0 -1 0
    outer loop
      vertex 5 24 4
      vertex 11 24 13
      vertex 5 24 13
    endloop
  endfacet
  facet normal 0 -1 -0
    outer loop
      vertex 11 24 13
      vertex 5 24 4
      vertex 11 24 4
    endloop
  endfacet
  facet normal 0 1 -0
    outer loop
      vertex 11 -24 4
      vertex 5 -24 13
      vertex 11 -24 13
    endloop
  endfacet
  facet normal 0 1 0
    outer loop
      vertex 5 -24 13
      vertex 11 -24 4
      vertex 5 -24 4
    endloop
  endfacet
endsolid OpenSCAD_Model
