solid OpenSCAD_Model
  facet normal -0 0 1
    outer loop
      vertex 18 0.25 15
      vertex 30 -0.25 15
      vertex 30 0.25 15
    endloop
  endfacet
  facet normal 0 0 1
    outer loop
      vertex 30 -0.25 15
      vertex 18 0.25 15
      vertex 18 -0.25 15
    endloop
  endfacet
  facet normal 0 0 -1
    outer loop
      vertex 18 -0.25 5
      vertex 30 0.25 5
      vertex 30 -0.25 5
    endloop
  endfacet
  facet normal -0 0 -1
    outer loop
      vertex 30 0.25 5
      vertex 18 -0.25 5
      vertex 18 0.25 5
    endloop
  endfacet
  facet normal 0 -1 0
    outer loop
      vertex 18 -0.25 5
      vertex 30 -0.25 15
      vertex 18 -0.25 15
    endloop
  endfacet
  facet normal 0 -1 -0
    outer loop
      vertex 30 -0.25 15
      vertex 18 -0.25 5
      vertex 30 -0.25 5
    endloop
  endfacet
  facet normal 1 -0 0
    outer loop
      vertex 30 -0.25 15
      vertex 30 0.25 5
      vertex 30 0.25 15
    endloop
  endfacet
  facet normal 1 0 0
    outer loop
      vertex 30 0.25 5
      vertex 30 -0.25 15
      vertex 30 -0.25 5
    endloop
  endfacet
  facet normal 0 1 -0
    outer loop
      vertex 30 0.25 5
      vertex 18 0.25 15
      vertex 30 0.25 15
    endloop
  endfacet
  facet normal 0 1 0
    outer loop
      vertex 18 0.25 15
      vertex 30 0.25 5
      vertex 18 0.25 5
    endloop
  endfacet
  facet normal -1 0 0
    outer loop
      vertex 18 -0.25 5
      vertex 18 0.25 15
      vertex 18 0.25 5
    endloop
  endfacet
  facet normal -1 -0 0
    outer loop
      vertex 18 0.25 15
      vertex 18 -0.25 5
      vertex 18 -0.25 15
    endloop
  endfacet
endsolid OpenSCAD_Model
